PathFileType	4	(X/Y/Z)	C:\Users\Basilio\Documents\Thesis Gigler\squatting_fais\c3dfiles\073\SJ_pre1\markers_experimental.trc
DataRate	CameraRate	NumFrames	NumMarkers	Units	OrigDataRate	OrigDataStartFrame	OrigNumFrames
200.000000	200.000000	4	61	mm	200.000000	1037	1383
Frame#	Time	FHD			LBHD			RBHD			C7			T10			CLAV			LSHO			LUUPA			LMUPA			LDUPA			LLEP			LMEP			LRAD			LUL			LRFIN			RSHO			RUPA1			RMUPA			RDUPA			RLEP			RMEP			RRAD			RUL			RUFIN			LASI			RASI			USACR			LSACR			RSACR			LTHI1			LTHI2			LTHI3			LTHI4			LLFC			LMFC			LTIB1			LTIB2			LTIB3			LTIB4			LLMAL			LMMAL			LHEE			LMT1			LMT2			LMT5			RTHI			RTHI2			RTHI3			RTHI4			RLFC			RMFC			RTIB1			RTIB2			RTIB3			RTIB4			RLMAL			RMMAL			RHEE			RMT1			RMT2			RMT5			
		X1	Y1	Z1	X2	Y2	Z2	X3	Y3	Z3	X4	Y4	Z4	X5	Y5	Z5	X6	Y6	Z6	X7	Y7	Z7	X8	Y8	Z8	X9	Y9	Z9	X10	Y10	Z10	X11	Y11	Z11	X12	Y12	Z12	X13	Y13	Z13	X14	Y14	Z14	X15	Y15	Z15	X16	Y16	Z16	X17	Y17	Z17	X18	Y18	Z18	X19	Y19	Z19	X20	Y20	Z20	X21	Y21	Z21	X22	Y22	Z22	X23	Y23	Z23	X24	Y24	Z24	X25	Y25	Z25	X26	Y26	Z26	X27	Y27	Z27	X28	Y28	Z28	X29	Y29	Z29	X30	Y30	Z30	X31	Y31	Z31	X32	Y32	Z32	X33	Y33	Z33	X34	Y34	Z34	X35	Y35	Z35	X36	Y36	Z36	X37	Y37	Z37	X38	Y38	Z38	X39	Y39	Z39	X40	Y40	Z40	X41	Y41	Z41	X42	Y42	Z42	X43	Y43	Z43	X44	Y44	Z44	X45	Y45	Z45	X46	Y46	Z46	X47	Y47	Z47	X48	Y48	Z48	X49	Y49	Z49	X50	Y50	Z50	X51	Y51	Z51	X52	Y52	Z52	X53	Y53	Z53	X54	Y54	Z54	X55	Y55	Z55	X56	Y56	Z56	X57	Y57	Z57	X58	Y58	Z58	X59	Y59	Z59	X60	Y60	Z60	X61	Y61	Z61	

1038	5.185	-292.8240966796876	1665.39990234375	-981.9916992187502	-426.8403320312501	1628.478149414063	-1002.026977539063	-446.7276306152345	1614.4443359375	-868.4671630859377	-484.1766967773439	1523.856811523438	-935.5569458007815	-544.5598144531251	1182.819213867188	-943.0774536132815	-362.3992919921876	1435.693603515625	-927.554382324219	-382.5874328613282	1466.4990234375	-1101.213989257813	-450.4299316406251	1385.220092773438	-1224.641235351563	-428.2807922363282	1339.608154296875	-1231.406127929688	-474.352508544922	1338.837280273438	-1271.267944335938	-503.5008850097657	1254.137329101563	-1328.31494140625	-579.3825073242189	1238.796508789063	-1294.210205078125	-444.7712707519532	1049.226806640625	-1165.172607421875	-402.7974548339845	1029.712768554688	-1223.066528320313	-405.8191223144532	1039.20458984375	-1115.343017578125	-390.1614990234376	1465.498779296875	-758.1434326171876	-498.0515136718751	1389.422729492188	-630.1820068359376	-483.037078857422	1343.834106445313	-619.1730346679689	-536.5623779296876	1345.337036132813	-591.8765869140626	-565.7577514648439	1266.306518554688	-549.4720458984376	-633.5610351562501	1255.770141601563	-613.3146972656251	-521.1548461914064	1047.663208007813	-704.7406616210939	-484.741668701172	1026.824829101563	-641.6111450195314	-453.9634704589845	1035.682861328125	-742.0949096679689	-358.5229797363282	1043.142578125	-1055.734252929688	-384.8396301269532	1028.282958984375	-805.6502075195315	-553.0689697265626	1074.35400390625	-940.4527587890627	-560.8251342773439	1046.22802734375	-969.8911743164065	-569.8701782226564	1042.179077148438	-915.026306152344	-387.3063049316407	708.6966552734376	-1144.911499023438	-354.5405273437501	631.6745605468751	-1133.871704101563	-312.3097229003907	633.5715332031251	-1109.470947265625	-382.8313293457032	579.5032348632814	-1136.648681640625	-389.5917358398439	519.7035522460939	-1144.31884765625	-383.2483825683594	500.491180419922	-1008.443054199219	-400.1585083007814	312.9662170410157	-1116.374633789063	-472.9840393066407	298.1443481445313	-1163.335083007813	-435.7380981445314	277.8966979980469	-1149.760375976563	-455.8587036132814	199.6672668457032	-1121.714477539063	-555.6850585937501	104.2753219604492	-1150.203735351563	-528.6651611328126	119.1354141235352	-1065.23095703125	-613.6901245117189	70.94110107421876	-1102.774536132813	-385.3804321289064	53.73338317871095	-1104.385864257813	-390.722381591797	57.31343841552736	-1142.479614257813	-436.4507141113282	39.57787704467774	-1189.368530273438	-460.0760192871095	789.7290649414065	-720.2126464843751	-418.8406372070314	739.6918945312501	-705.5464477539064	-385.4483642578126	744.7838134765626	-706.8298339843751	-433.4801635742189	657.4364013671876	-717.2316284179689	-394.3672180175782	516.5011596679689	-699.5348510742189	-372.9866333007813	482.6256408691407	-823.3413696289065	-346.8144226074219	340.6570434570313	-750.8272094726564	-382.0175170898438	273.8072204589844	-673.3477783203126	-353.3615417480469	263.9353637695313	-710.8278808593751	-372.2648010253907	214.301742553711	-735.5670776367189	-427.2103881835939	90.68560791015626	-661.0349731445314	-411.1717834472657	104.2466735839844	-751.1001586914064	-482.0774230957032	34.11392211914063	-716.4014892578126	-265.2683105468751	99.18292236328128	-688.7604370117189	-273.9363098144532	101.453125	-648.1547241210939	-314.4385375976563	66.97033691406251	-607.3657226562501	
1039	5.19	-295.6183471679688	1664.73681640625	-983.0064697265627	-429.5212402343751	1627.580200195313	-1003.120666503906	-449.1809387207032	1613.427001953125	-869.3083496093752	-486.4640197753907	1522.65380859375	-936.7986450195315	-545.3429565429689	1180.8701171875	-944.9497680664065	-364.1873168945313	1434.728759765625	-928.6466064453127	-383.9706726074219	1465.55126953125	-1102.227172851563	-450.9512634277345	1383.456909179688	-1225.901000976563	-428.5622863769532	1337.6435546875	-1232.347534179688	-474.5677795410157	1336.775390625	-1272.798095703125	-502.9525756835939	1251.974609375	-1329.435791015625	-578.8873901367189	1236.421997070313	-1295.7646484375	-444.108123779297	1047.282348632813	-1166.4775390625	-401.7858276367189	1028.1220703125	-1224.284790039063	-405.7651367187501	1037.403076171875	-1116.681396484375	-392.3679504394532	1464.307861328125	-758.9646606445314	-500.3994140625001	1387.503173828125	-631.1567993164064	-485.2625122070314	1341.960083007813	-620.3643798828126	-538.8520507812501	1343.23974609375	-593.0851440429689	-567.8917236328126	1264.126586914063	-550.9165649414064	-635.4923095703126	1253.451782226563	-614.9007568359376	-522.2916870117189	1045.822998046875	-706.2214965820314	-486.0165100097657	1024.969116210938	-642.9598999023439	-455.2646789550782	1034.133544921875	-743.3479003906251	-358.3265075683594	1041.603759765625	-1056.558837890625	-385.6904602050782	1026.939819335938	-806.5601806640627	-553.7882080078126	1072.217041015625	-942.4033813476565	-561.5067138671876	1044.002197265625	-972.0415039062502	-570.4619750976564	1040.182861328125	-917.0754394531252	-389.5300903320314	707.3689575195314	-1145.480102539063	-357.4911193847657	630.1585693359376	-1134.275634765625	-315.2071838378907	631.8184204101564	-1109.519653320313	-386.1813964843751	578.2384033203126	-1136.872802734375	-393.3744201660157	518.3043823242189	-1144.514038085938	-388.0694580078126	499.0940551757814	-1008.14697265625	-401.9343261718751	311.2721557617188	-1116.25146484375	-474.3416442871095	295.5735473632813	-1163.645141601563	-437.052215576172	275.5885314941407	-1149.989501953125	-456.6973876953126	197.3734893798829	-1121.542602539063	-555.8282470703126	101.3692016601563	-1150.411376953125	-528.6790771484376	116.2745132446289	-1065.183959960938	-614.1143798828126	67.47914123535158	-1102.716552734375	-385.4113159179689	53.72614669799806	-1104.633178710938	-390.8745727539064	57.11664199829103	-1142.7685546875	-436.3855285644532	39.23114776611329	-1189.815551757813	-460.6095581054689	789.0983886718752	-721.5267944335939	-419.1712341308595	739.3178100585939	-706.3419189453126	-385.747528076172	744.5479125976564	-707.3983764648439	-433.406463623047	657.0051879882814	-718.0671997070314	-393.8444213867189	516.2687988281251	-699.8807983398439	-371.9950561523438	482.3282775878907	-823.6314697265627	-346.3242187500001	340.4326171875001	-750.8861083984376	-381.4927978515626	273.6751098632813	-673.3284301757814	-352.7817993164063	263.7069702148438	-710.6713867187501	-370.9142456054688	214.1551208496094	-735.8391113281251	-426.8594055175782	90.50656890869142	-660.8663940429689	-410.7801208496095	104.0707321166992	-750.9650878906251	-481.1929016113282	34.13817596435548	-716.6645507812501	-264.8163146972657	98.20145416259768	-688.5415039062501	-273.4093933105469	100.4859771728516	-647.8643188476564	-314.0364685058594	66.14122772216798	-607.2109375000001	
1040	5.195	-298.0180664062501	1664.192626953125	-983.618347167969	-432.211151123047	1626.60546875	-1004.081115722656	-451.7805175781251	1612.567993164063	-870.4044189453127	-488.5830688476564	1521.4482421875	-938.1060791015627	-546.1812744140626	1179.079223632813	-946.8503417968752	-365.7171630859376	1433.730590820313	-929.3613281250002	-385.4057617187501	1464.417114257813	-1103.363525390625	-451.3155822753907	1381.6025390625	-1227.105590820313	-428.7937316894532	1336.140502929688	-1233.299682617188	-474.6485595703126	1334.754272460938	-1273.804565429688	-502.4852905273439	1249.973876953125	-1330.643920898438	-578.3630371093751	1233.921630859375	-1297.254516601563	-443.0761108398439	1045.228149414063	-1167.6875	-400.7123107910157	1026.472534179688	-1225.468139648438	-406.2281799316407	1035.395874023438	-1118.159423828125	-394.616912841797	1463.028442382813	-759.8364868164064	-502.7422180175782	1385.506958007813	-632.3538818359376	-487.4460754394532	1339.934936523438	-621.5441284179689	-541.0291748046876	1341.071411132813	-594.3179321289064	-569.9353637695314	1261.935424804688	-552.3375854492189	-637.3502807617189	1251.128295898438	-616.4872436523439	-523.5300903320314	1043.953979492188	-707.7696533203126	-487.0676269531251	1023.209655761719	-644.3883666992189	-456.2898254394532	1032.540405273438	-744.5537719726564	-358.4491271972657	1039.866577148438	-1057.65234375	-386.4927368164064	1025.571044921875	-807.5701293945315	-554.4486694335939	1070.205322265625	-944.558044433594	-562.0535278320314	1042.001342773438	-974.164978027344	-571.2021484375001	1038.105224609375	-919.2244262695315	-391.8966369628907	706.1555786132814	-1145.911254882813	-360.3173522949219	628.6110839843751	-1134.676513671875	-318.2359313964844	630.2973632812501	-1109.693481445313	-389.5708618164064	576.9864501953126	-1137.022705078125	-397.4622192382814	516.8781127929689	-1144.562377929688	-392.6328735351564	497.7269592285157	-1007.973510742188	-403.5957336425782	309.4766540527344	-1116.185424804688	-475.7547302246095	293.2245788574219	-1163.804077148438	-438.9150390625001	273.4853820800782	-1149.833984375	-457.8538513183595	195.3481140136719	-1121.555053710938	-556.4431152343751	98.48561096191409	-1150.4580078125	-529.1069946289064	113.751220703125	-1064.909057617188	-614.6447143554689	63.88039779663087	-1102.315795898438	-385.5628967285157	53.85670471191408	-1104.774047851563	-391.2969970703126	57.08078002929689	-1142.809936523438	-436.464569091797	38.97509002685548	-1190.097534179688	-460.970916748047	788.4281005859377	-722.6958007812501	-419.5411682128907	738.8966674804689	-707.2563476562501	-385.9695434570314	744.2304077148439	-708.3334350585939	-433.240936279297	656.5230102539064	-718.8872070312501	-393.0924377441407	516.0496215820314	-700.2153930664064	-370.8273315429688	481.9648742675782	-823.8161621093752	-345.6691589355469	340.0763549804688	-750.9371948242189	-380.9921569824219	273.5271911621094	-673.3873901367189	-352.1947937011719	263.4828186035157	-710.6235961914064	-370.2982177734376	213.9557037353516	-735.7746582031251	-426.5552062988282	90.45677947998048	-660.6823120117189	-410.367401123047	103.7543487548828	-750.7432250976564	-481.0050048828126	34.30060195922852	-716.5759887695314	-264.1186218261719	97.06618499755862	-688.1951293945314	-272.8400878906251	99.46446228027347	-647.6013183593751	-313.7515869140626	65.20052337646486	-607.0073852539064	
1041	5.2	-300.5963439941407	1663.562255859375	-984.7772216796877	-434.4383239746095	1625.7021484375	-1005.102233886719	-454.2672119140626	1611.396606445313	-871.5640258789065	-490.5425415039064	1520.199829101563	-939.3054199218752	-547.0664672851564	1177.221557617188	-948.783142089844	-367.4145812988282	1432.6669921875	-930.6390380859377	-386.6744079589845	1463.406616210938	-1104.433227539063	-451.7415771484376	1379.802978515625	-1228.45556640625	-429.0893554687501	1334.033569335938	-1234.551879882813	-474.8453674316407	1332.742065429688	-1275.217529296875	-502.009979248047	1247.8115234375	-1331.809326171875	-577.9973144531251	1231.475219726563	-1298.748168945313	-442.473114013672	1043.2998046875	-1169.107543945313	-399.8950195312501	1024.8232421875	-1226.574584960938	-406.0104370117189	1033.571166992188	-1120.012817382813	-396.6987915039064	1461.639282226563	-760.7009887695314	-504.8087158203126	1383.47900390625	-633.4227294921876	-489.5201416015626	1337.894775390625	-622.8087768554689	-543.0905151367189	1338.92236328125	-595.5915527343751	-571.9039916992189	1259.597778320313	-553.8545532226564	-639.1693725585939	1248.699829101563	-618.1224365234376	-524.6299438476564	1042.015625	-709.2656860351564	-488.4443969726564	1021.220947265625	-645.8941650390626	-457.4102172851564	1030.8662109375	-745.7945556640626	-358.9707336425782	1037.80859375	-1058.667114257813	-387.4175109863282	1024.020263671875	-808.6375122070315	-555.3193969726564	1068.115112304688	-946.8347778320315	-562.7374877929689	1039.703979492188	-976.237976074219	-572.0997314453126	1036.026000976563	-921.4946899414065	-394.4570922851564	704.8841552734376	-1146.592529296875	-363.2087707519532	627.1282348632814	-1135.317993164063	-321.2351989746094	628.6579589843751	-1109.94384765625	-392.9182128906251	575.7208862304689	-1137.453491210938	-401.468719482422	515.4758911132814	-1144.96240234375	-397.3186035156251	496.4688110351564	-1007.853637695313	-405.6590270996095	307.7987060546876	-1115.9169921875	-477.6711730957032	291.1875915527344	-1163.8447265625	-440.2887573242189	271.7086181640626	-1149.64453125	-459.1873474121095	193.5068359375001	-1121.214111328125	-557.5444335937501	96.10945129394534	-1150.146362304688	-530.0568847656251	111.797592163086	-1064.435791015625	-615.2787475585939	60.64000701904298	-1101.778686523438	-385.9593811035157	53.92584609985353	-1104.625854492188	-391.9204406738282	57.10502243041994	-1142.333251953125	-436.7794189453126	38.85657119750977	-1189.979248046875	-461.394012451172	787.7722167968752	-723.8617553710939	-419.7300415039064	738.4593505859376	-708.2522583007814	-386.2913513183595	743.9620971679689	-708.9042968750001	-433.0896301269532	655.9754028320314	-719.7008666992189	-392.390594482422	515.8031616210939	-700.5048828125001	-369.6296386718751	481.5006103515626	-823.9935302734377	-344.9425659179688	339.8652648925782	-750.9887084960939	-380.4494323730469	273.3587646484376	-673.4030761718751	-351.6163330078126	263.2694396972657	-710.5451660156251	-369.5870361328126	213.7425994873047	-735.5961914062501	-426.0348510742189	90.22209930419923	-660.5495605468751	-410.0696716308595	103.6840209960938	-750.4815063476564	-480.7560119628907	34.51726150512696	-716.5321655273439	-263.6472778320313	96.08757019042972	-687.9616699218751	-272.3705444335938	98.29061126708987	-647.4111328125001	-313.4764404296876	64.22727203369142	-606.8823242187501	
